<?xml version="1.0" standalone="no"?>
<!DOCTYPE svg PUBLIC "-//W3C//DTD SVG 20010904//EN"
 "http://www.w3.org/TR/2001/REC-SVG-20010904/DTD/svg10.dtd">
<svg version="1.0" xmlns="http://www.w3.org/2000/svg"
 width="192.000000pt" height="192.000000pt" viewBox="0 0 192.000000 192.000000"
 preserveAspectRatio="xMidYMid meet">
<metadata>
Created by potrace 1.14, written by Peter Selinger 2001-2017
</metadata>
<g transform="translate(0.000000,192.000000) scale(0.100000,-0.100000)"
fill="#000000" stroke="none">
<path d="M825 1914 c-11 -2 -45 -9 -75 -15 -30 -6 -59 -14 -65 -17 -5 -3 -20
-7 -34 -8 -13 -2 -28 -9 -32 -16 -5 -7 -9 -9 -9 -4 0 5 -6 4 -12 -2 -7 -6 -16
-11 -21 -11 -21 -2 -150 -74 -202 -114 -61 -46 -185 -172 -185 -189 0 -5 -11
-21 -25 -36 -14 -15 -25 -32 -25 -39 0 -7 -3 -13 -7 -13 -5 0 -16 -20 -26 -45
-11 -25 -23 -45 -27 -45 -5 0 -7 -9 -5 -20 2 -11 -1 -20 -6 -20 -6 0 -8 -4 -5
-9 4 -5 1 -11 -4 -13 -6 -2 -12 -14 -14 -28 -2 -14 -6 -32 -9 -40 -36 -92 -47
-302 -23 -436 8 -51 21 -105 27 -120 7 -16 11 -35 10 -41 -1 -7 3 -13 9 -13 6
0 9 -4 5 -9 -3 -5 -1 -12 5 -16 6 -4 8 -11 5 -16 -4 -5 -2 -9 3 -9 6 0 13 -11
16 -24 12 -49 130 -212 204 -283 41 -40 79 -73 83 -73 5 0 43 -22 85 -50 42
-27 90 -54 107 -59 18 -5 55 -18 82 -28 28 -11 56 -18 63 -16 6 3 12 0 12 -6
0 -5 8 -10 18 -10 9 0 33 -4 52 -8 56 -13 333 -9 337 4 3 7 11 9 19 6 8 -3 20
0 28 6 8 7 18 10 22 9 5 -2 23 2 39 9 17 6 63 24 103 39 39 15 72 31 72 36 0
5 4 7 9 4 5 -4 11 -3 13 1 1 5 29 25 61 46 31 20 57 42 57 48 0 5 4 8 9 5 16
-10 201 200 201 229 0 3 8 15 19 26 10 11 32 57 49 102 41 112 44 120 48 137
2 8 11 47 20 85 19 82 16 314 -5 338 -6 8 -9 22 -5 31 3 9 1 16 -4 16 -6 0
-11 8 -10 18 0 19 -45 150 -69 196 -9 17 -31 52 -49 77 -19 26 -34 50 -34 53
0 8 -5 15 -82 99 -34 37 -67 67 -74 67 -7 0 -19 9 -26 19 -16 22 -193 127
-223 133 -11 1 -22 6 -25 9 -3 4 -43 16 -90 29 -62 16 -122 23 -225 25 -77 2
-149 2 -160 -1z"/>
</g>
</svg>
