<?xml version="1.0" standalone="no"?>
<!DOCTYPE svg PUBLIC "-//W3C//DTD SVG 20010904//EN"
 "http://www.w3.org/TR/2001/REC-SVG-20010904/DTD/svg10.dtd">
<svg version="1.0" xmlns="http://www.w3.org/2000/svg"
 width="192.000000pt" height="192.000000pt" viewBox="0 0 192.000000 192.000000"
 preserveAspectRatio="xMidYMid meet">
<metadata>
Created by potrace 1.14, written by Peter Selinger 2001-2017
</metadata>
<g transform="translate(0.000000,192.000000) scale(0.100000,-0.100000)"
fill="#000000" stroke="none">
<path d="M1710 1911 c-19 -3 -48 -6 -65 -6 -16 0 -33 -4 -37 -10 -5 -7 -14 -6
-27 2 -10 6 -22 9 -25 6 -3 -4 -45 -8 -92 -9 -48 -2 -103 -6 -123 -9 -50 -9
-69 -12 -121 -19 -94 -12 -136 -17 -150 -18 -8 0 -21 -5 -27 -11 -9 -6 -13 -6
-13 1 0 11 -31 9 -52 -4 -7 -5 -8 -3 -3 6 6 9 4 11 -5 5 -7 -5 -27 -9 -44 -11
-85 -6 -175 -15 -206 -19 -19 -3 -62 -7 -95 -10 -127 -11 -195 -27 -195 -47 0
-5 -4 -7 -9 -3 -6 3 -13 0 -18 -7 -4 -7 -17 -18 -28 -25 -11 -6 -19 -16 -18
-22 2 -6 -1 -11 -7 -11 -6 0 -8 -22 -6 -54 3 -43 10 -61 30 -81 15 -14 35 -27
46 -28 11 -1 20 -4 20 -7 0 -9 57 -7 65 2 4 4 18 3 31 -2 13 -5 26 -6 28 -1 3
4 24 9 48 10 70 5 113 9 113 11 0 1 19 4 41 6 31 3 43 0 48 -11 6 -17 -37 -69
-48 -57 -10 9 -536 11 -536 1 0 -4 -13 -6 -29 -5 -17 1 -28 -2 -25 -6 5 -7
-10 -12 -28 -9 -4 0 -10 -8 -13 -19 -4 -11 -11 -20 -16 -20 -6 0 -7 -4 -4 -10
3 -5 2 -10 -2 -10 -5 0 -10 -10 -10 -22 -4 -62 -10 -108 -16 -114 -3 -3 -2
-16 3 -29 5 -14 5 -26 -3 -34 -6 -6 -7 -11 -1 -11 5 0 9 -38 9 -85 0 -47 -2
-85 -5 -85 -3 0 -5 -16 -5 -35 0 -19 2 -35 5 -35 7 0 4 -96 -4 -108 -3 -6 0
-13 6 -15 7 -3 8 -6 2 -6 -7 -1 -8 -18 -4 -51 4 -33 3 -50 -4 -50 -7 0 -8 -3
-1 -8 11 -8 13 -81 2 -98 -3 -6 -3 -14 0 -18 4 -4 9 -19 11 -33 5 -38 29 -93
41 -93 6 0 11 -6 11 -14 0 -18 27 -29 34 -13 2 7 5 4 5 -5 1 -10 7 -18 14 -18
8 0 8 -3 1 -8 -6 -4 -21 -29 -34 -57 -13 -27 -26 -52 -29 -55 -6 -5 -17 -23
-45 -75 -6 -11 -19 -31 -28 -44 -10 -13 -15 -27 -12 -32 3 -5 0 -9 -6 -9 -6 0
-8 -4 -5 -10 3 -5 1 -10 -5 -10 -6 0 -8 -4 -5 -10 3 -5 2 -10 -3 -10 -10 0
-22 -28 -29 -72 l-4 -28 149 0 148 0 25 38 c13 20 33 54 44 75 11 20 23 37 28
37 4 0 6 4 3 8 -3 5 4 19 15 30 11 12 18 22 15 22 -2 0 18 41 45 91 27 49 49
94 49 98 0 11 43 18 105 17 28 -1 53 4 57 9 5 7 8 6 8 -1 0 -8 60 -11 80 -4 3
1 8 2 13 1 4 0 7 4 7 10 0 6 7 9 15 5 8 -3 15 -1 15 5 0 6 4 8 9 5 5 -4 11 -1
13 5 3 8 10 6 21 -5 9 -10 17 -12 17 -6 0 6 5 8 10 5 6 -4 8 -11 5 -16 -3 -5
1 -6 10 -2 10 3 21 0 26 -8 7 -11 9 -11 9 -1 0 7 5 10 10 7 16 -10 120 -13
114 -3 -8 12 19 5 28 -7 5 -7 8 -6 8 0 0 6 10 11 22 12 11 1 25 8 30 15 6 10
10 10 19 -2 9 -13 10 -13 6 1 -6 19 8 44 25 44 8 0 12 10 10 28 -2 15 0 27 5
27 4 0 8 35 8 78 0 42 3 85 8 95 5 11 3 17 -5 17 -9 0 -9 3 2 9 17 12 33 4 24
-11 -4 -7 -2 -8 4 -4 7 4 23 -5 38 -21 14 -15 22 -21 19 -13 -4 8 4 3 17 -12
14 -16 30 -28 37 -28 10 0 15 -14 12 -34 -1 -5 4 -4 13 3 12 10 15 8 21 -8 3
-11 12 -20 18 -18 7 1 11 -3 10 -10 -2 -7 4 -10 12 -7 9 4 15 0 15 -9 0 -9 5
-19 12 -23 7 -4 8 -3 4 4 -5 8 -2 10 8 6 9 -3 13 -10 10 -15 -3 -5 2 -9 10 -9
10 0 16 -9 16 -22 0 -15 3 -19 8 -10 6 9 13 7 30 -8 11 -11 28 -20 37 -20 9 0
13 -4 10 -10 -4 -6 7 -11 24 -11 17 -1 45 -2 61 -3 17 0 30 2 30 6 0 5 3 7 8
6 13 -2 42 14 42 24 0 6 7 16 16 23 9 6 17 26 17 43 1 18 4 32 7 32 9 0 6 744
-3 758 -5 7 -4 12 2 12 12 0 -6 39 -22 51 -5 3 -9 10 -9 15 0 5 -4 8 -9 6 -5
-1 -8 1 -8 5 3 20 -2 34 -11 28 -5 -3 -10 -1 -10 4 0 6 -11 11 -25 11 -14 0
-25 4 -25 8 0 8 -161 8 -190 1 -8 -2 -20 -11 -27 -19 -9 -11 -12 -12 -13 -2 0
10 -3 10 -15 -2 -16 -15 -39 -66 -37 -78 1 -5 -2 -8 -7 -8 -4 0 -7 -13 -5 -30
2 -19 -1 -30 -9 -30 -7 0 -8 -3 -2 -8 11 -8 16 -52 5 -52 -4 0 -7 -7 -7 -15 0
-8 4 -15 9 -15 5 0 4 -9 -2 -19 -7 -14 -7 -20 1 -23 7 -2 4 -10 -7 -18 -10 -8
-15 -10 -11 -4 3 6 -9 18 -29 27 -19 9 -37 24 -40 32 -4 8 -13 15 -21 15 -8 0
-11 5 -7 12 5 8 2 9 -10 5 -9 -4 -15 -3 -12 2 3 5 -2 15 -11 22 -14 12 -16 12
-8 -1 4 -8 -3 -4 -16 10 -13 13 -23 28 -22 32 2 4 -4 5 -12 2 -8 -4 -15 -1
-15 5 0 6 -7 11 -15 11 -8 0 -15 7 -15 16 0 8 -4 13 -8 10 -5 -3 -15 4 -22 15
-8 10 -20 19 -27 19 -7 0 -12 6 -10 13 1 6 -5 11 -13 9 -11 -2 -10 2 4 12 10
8 15 19 11 25 -3 6 1 11 9 11 14 0 21 18 17 43 0 4 3 7 9 7 5 0 10 6 10 13 0
6 10 23 21 37 11 14 17 18 13 10 -6 -12 -5 -13 7 -3 8 6 17 12 22 12 4 1 8 1
10 2 1 0 22 3 47 5 25 3 50 10 56 15 7 6 15 6 18 1 6 -10 83 -9 93 1 3 4 12 2
20 -4 8 -7 13 -8 13 -1 0 5 14 9 30 8 17 -1 30 0 30 3 0 3 28 7 63 8 77 3 171
12 217 20 34 6 62 9 108 12 22 1 22 3 22 137 l0 135 -87 -2 c-49 -2 -104 -5
-123 -8z"/>
</g>
</svg>
